<svg width="15" height="18" viewBox="0 0 15 18" fill="none" xmlns="http://www.w3.org/2000/svg">
<path d="M13.9 0.708862H5.1C4.80826 0.708862 4.52847 0.836796 4.32218 1.06452C4.11589 1.29224 4 1.6011 4 1.92315H13.9V16.4946H5.1V10.5446H4V16.4946C4 16.8166 4.11589 17.1255 4.32218 17.3532C4.52847 17.5809 4.80826 17.7089 5.1 17.7089H13.9C14.1917 17.7089 14.4715 17.5809 14.6778 17.3532C14.8841 17.1255 15 16.8166 15 16.4946V1.92315C15 1.6011 14.8841 1.29224 14.6778 1.06452C14.4715 0.836796 14.1917 0.708862 13.9 0.708862Z" fill="#1D1D1D"/>
<path d="M7.52795 11.5522C7.46293 11.6111 7.41012 11.6837 7.37284 11.7652C7.33556 11.8468 7.31461 11.9356 7.31131 12.0261C7.308 12.1167 7.32241 12.2069 7.35364 12.2913C7.38487 12.3757 7.43223 12.4523 7.49276 12.5163C7.55329 12.5804 7.62568 12.6305 7.70539 12.6636C7.78509 12.6966 7.87039 12.7119 7.95593 12.7084C8.04147 12.7049 8.12541 12.6827 8.20247 12.6432C8.27952 12.6038 8.34805 12.5479 8.40373 12.4791L12 8.67301L8.40994 4.86693C8.29112 4.75924 8.13828 4.70296 7.98195 4.70935C7.82563 4.71574 7.67735 4.78433 7.56673 4.9014C7.45611 5.01847 7.39131 5.1754 7.38527 5.34084C7.37923 5.50628 7.43241 5.66804 7.53416 5.7938L9.62733 7.96307H0.621118C0.456387 7.96307 0.298403 8.03232 0.181921 8.1556C0.065439 8.27888 0 8.44608 0 8.62042C0 8.79476 0.065439 8.96196 0.181921 9.08524C0.298403 9.20852 0.456387 9.27777 0.621118 9.27777H9.62733L7.52795 11.5522Z" fill="#1D1D1D"/>
</svg>
