<svg width="48" height="48" viewBox="0 0 48 48" fill="none" xmlns="http://www.w3.org/2000/svg">
<path d="M19.5996 11.0438C20.0835 11.0438 20.5479 10.8528 20.8917 10.5123C21.2355 10.1718 21.4309 9.70937 21.4356 9.22551C21.4403 8.74134 21.2536 8.27491 20.9161 7.92775C20.5785 7.5806 20.1175 7.38083 19.6334 7.37195M19.441 14.6981C18.9571 14.6981 18.4928 14.5071 18.149 14.1666C17.8052 13.8261 17.6097 13.3636 17.6051 12.8798C17.6003 12.3956 17.7871 11.9292 18.1246 11.582C18.4621 11.2348 18.9231 11.0351 19.4072 11.0262M19.5996 18.3699C20.0835 18.37 20.5479 18.179 20.8917 17.8385C21.2355 17.498 21.4309 17.0355 21.4356 16.5516C21.4403 16.0675 21.2536 15.601 20.9161 15.2539C20.5785 14.9067 20.1175 14.707 19.6334 14.6981M26.9434 11.0438C27.4273 11.0438 27.8916 10.8528 28.2354 10.5123C28.5792 10.1718 28.7747 9.70937 28.7793 9.22551C28.7841 8.74134 28.5973 8.27491 28.2598 7.92775C27.9223 7.5806 27.4613 7.38083 26.9772 7.37195M26.7848 14.6981C26.3009 14.6981 25.8366 14.5071 25.4928 14.1666C25.149 13.8261 24.9535 13.3636 24.9488 12.8798C24.9441 12.3956 25.1308 11.9292 25.4683 11.582C25.8059 11.2348 26.2669 11.0351 26.751 11.0262M26.9434 18.3699C27.4273 18.37 27.8916 18.179 28.2354 17.8385C28.5792 17.498 28.7747 17.0355 28.7793 16.5516C28.7841 16.0675 28.5973 15.601 28.2598 15.2539C27.9223 14.9067 27.4613 14.707 26.9772 14.6981M12.8243 11.0438C13.3082 11.0438 13.7725 10.8528 14.1163 10.5123C14.4601 10.1718 14.6556 9.70937 14.6602 9.22551C14.665 8.74159 14.4784 8.27538 14.1412 7.92826C13.804 7.58115 13.3434 7.38122 12.8595 7.37195M12.6671 14.6981C12.1833 14.6981 11.7189 14.5071 11.3751 14.1666C11.0313 13.8261 10.8358 13.3636 10.8312 12.8798C10.8265 12.3958 11.013 11.9296 11.3502 11.5825C11.6874 11.2354 12.148 11.0355 12.6319 11.0262M12.8243 18.3699C13.3082 18.37 13.7725 18.179 14.1163 17.8385C14.4601 17.498 14.6556 17.0355 14.6602 16.5516C14.665 16.0677 14.4784 15.6015 14.1412 15.2544C13.804 14.9073 13.3434 14.7073 12.8595 14.6981" stroke="#FAA41A" stroke-linecap="round" stroke-linejoin="round"/>
<path d="M13.5396 40.0458H26.7554V35.6748C23.9398 36.9173 22.2992 37.1112 20.0168 37.1582C17.163 37.217 15.2286 36.7235 13.5396 36.3005V40.0458Z" stroke="#383747" stroke-linecap="round" stroke-linejoin="round"/>
<path d="M36.7811 24.2214C34.3136 33.4364 24.8827 38.9045 15.6678 36.4356C12.7434 35.6548 10.0766 34.1167 7.93636 31.9764C5.79608 29.8361 4.25798 27.1693 3.47717 24.2449L36.7811 24.2214Z" fill="#FAA41A" stroke="#383747" stroke-linecap="round" stroke-linejoin="round"/>
<path d="M3.46835 21.2766H36.7869V24.3008H3.46835V21.2766Z" stroke="#383747" stroke-linecap="round" stroke-linejoin="round"/>
<path d="M24.99 21.2678C36.4462 21.7202 33.566 13.5569 42.0333 12.8196C42.8705 12.7461 43.3111 12.73 44.4861 12.8049L44.5302 12.7902C43.0688 11.9207 40.3751 10.449 38.1265 11.0732C36.9764 11.3934 35.1846 12.6301 33.9846 14.9874C30.9634 21.6027 28.0215 21.2546 25.6274 21.2663L24.99 21.2678Z" stroke="#383747" stroke-linecap="round" stroke-linejoin="round"/>
<path d="M32.0399 26.8167C31.0001 29.9892 28.2168 32.1923 24.9855 32.7916" stroke="white" stroke-linecap="round" stroke-linejoin="round"/>
</svg>
