<svg width="29" height="28" viewBox="0 0 29 28" fill="none" xmlns="http://www.w3.org/2000/svg">
<path d="M2.42001 3.23279C2.0381 3.23279 1.67183 3.37995 1.40178 3.64191C1.13172 3.90386 0.980011 4.25915 0.980011 4.62961C0.980011 5.00007 1.13172 5.35536 1.40178 5.61732C1.67183 5.87927 2.0381 6.02644 2.42001 6.02644H4.17681L4.61601 7.73336C4.62037 7.75301 4.62517 7.77257 4.63041 7.79203L6.58593 15.3768L5.30001 16.6228C3.48561 18.3828 4.77009 21.3915 7.33617 21.3915H19.7C20.0819 21.3915 20.4482 21.2444 20.7182 20.9824C20.9883 20.7204 21.14 20.3652 21.14 19.9947C21.14 19.6242 20.9883 19.2689 20.7182 19.007C20.4482 18.745 20.0819 18.5979 19.7 18.5979H7.33617L8.77617 17.201H18.26C18.5274 17.2009 18.7894 17.1286 19.0168 16.9921C19.2441 16.8557 19.4279 16.6606 19.5474 16.4286L23.8674 8.04765C23.977 7.83474 24.0288 7.59818 24.0178 7.36042C24.0067 7.12265 23.9333 6.89156 23.8043 6.68909C23.6753 6.48661 23.4952 6.31945 23.2809 6.20348C23.0666 6.08751 22.8254 6.02657 22.58 6.02644H7.14321L6.69681 4.29018C6.6188 3.98813 6.43898 3.72001 6.18591 3.52843C5.93284 3.33685 5.62103 3.2328 5.30001 3.23279H2.42001Z" fill="#1D1D1D"/>
<path d="M21.14 24.8836C21.14 25.4393 20.9124 25.9722 20.5074 26.3651C20.1023 26.7581 19.5529 26.9788 18.98 26.9788C18.4071 26.9788 17.8577 26.7581 17.4527 26.3651C17.0476 25.9722 16.82 25.4393 16.82 24.8836C16.82 24.3279 17.0476 23.7949 17.4527 23.402C17.8577 23.0091 18.4071 22.7883 18.98 22.7883C19.5529 22.7883 20.1023 23.0091 20.5074 23.402C20.9124 23.7949 21.14 24.3279 21.14 24.8836Z" fill="#1D1D1D"/>
<path d="M7.46002 26.9788C8.03289 26.9788 8.58229 26.7581 8.98737 26.3651C9.39245 25.9722 9.62002 25.4393 9.62002 24.8836C9.62002 24.3279 9.39245 23.7949 8.98737 23.402C8.58229 23.0091 8.03289 22.7883 7.46002 22.7883C6.88715 22.7883 6.33775 23.0091 5.93267 23.402C5.52759 23.7949 5.30002 24.3279 5.30002 24.8836C5.30002 25.4393 5.52759 25.9722 5.93267 26.3651C6.33775 26.7581 6.88715 26.9788 7.46002 26.9788Z" fill="#1D1D1D"/>
<rect x="16.5" width="12" height="12" rx="6" fill="#FFCB45"/>
<path d="M20.3699 9V8.28409L22.5847 5.98935C22.8212 5.74006 23.0162 5.52166 23.1696 5.33416C23.3251 5.14453 23.4412 4.96449 23.5179 4.79403C23.5946 4.62358 23.633 4.44247 23.633 4.25071C23.633 4.03338 23.5819 3.84588 23.4796 3.68821C23.3773 3.52841 23.2377 3.40589 23.0609 3.32067C22.8841 3.23331 22.6848 3.18963 22.4632 3.18963C22.2289 3.18963 22.0243 3.23757 21.8496 3.33345C21.6749 3.42933 21.5407 3.56463 21.4469 3.73935C21.3532 3.91406 21.3063 4.11861 21.3063 4.35298H20.3635C20.3635 3.95455 20.4551 3.60618 20.6383 3.30788C20.8216 3.00959 21.073 2.77841 21.3926 2.61435C21.7122 2.44815 22.0755 2.36506 22.4824 2.36506C22.8936 2.36506 23.2559 2.44709 23.5691 2.61115C23.8844 2.77308 24.1305 2.99467 24.3074 3.27592C24.4842 3.55504 24.5726 3.87038 24.5726 4.22195C24.5726 4.46484 24.5268 4.70241 24.4352 4.93466C24.3457 5.1669 24.1891 5.42578 23.9654 5.71129C23.7417 5.99467 23.4306 6.33878 23.0321 6.74361L21.7314 8.10511V8.15305H24.6781V9H20.3699Z" fill="#1D1D1D"/>
</svg>
