<svg width="23" height="23" viewBox="0 0 23 23" fill="none" xmlns="http://www.w3.org/2000/svg">
<path fill-rule="evenodd" clip-rule="evenodd" d="M6.965 0.255453C8.138 0.201453 8.512 0.189453 11.5 0.189453C14.488 0.189453 14.862 0.202453 16.034 0.255453C17.206 0.308453 18.006 0.495453 18.706 0.766453C19.439 1.04345 20.104 1.47645 20.654 2.03645C21.214 2.58545 21.646 3.24945 21.922 3.98345C22.194 4.68345 22.38 5.48345 22.434 6.65345C22.488 7.82845 22.5 8.20245 22.5 11.1895C22.5 14.1775 22.487 14.5515 22.434 15.7245C22.381 16.8945 22.194 17.6945 21.922 18.3945C21.646 19.1285 21.2133 19.7937 20.654 20.3435C20.104 20.9035 19.439 21.3355 18.706 21.6115C18.006 21.8835 17.206 22.0695 16.036 22.1235C14.862 22.1775 14.488 22.1895 11.5 22.1895C8.512 22.1895 8.138 22.1765 6.965 22.1235C5.795 22.0705 4.995 21.8835 4.295 21.6115C3.56092 21.3354 2.89582 20.9027 2.346 20.3435C1.78638 19.7941 1.35331 19.1293 1.077 18.3955C0.806 17.6955 0.62 16.8955 0.566 15.7255C0.512 14.5505 0.5 14.1765 0.5 11.1895C0.5 8.20145 0.513 7.82745 0.566 6.65545C0.619 5.48345 0.806 4.68345 1.077 3.98345C1.35372 3.24953 1.78712 2.58477 2.347 2.03545C2.89604 1.47595 3.56047 1.0429 4.294 0.766453C4.994 0.495453 5.794 0.309453 6.964 0.255453H6.965ZM15.945 2.23545C14.785 2.18245 14.437 2.17145 11.5 2.17145C8.563 2.17145 8.215 2.18245 7.055 2.23545C5.982 2.28445 5.4 2.46345 5.012 2.61445C4.499 2.81445 4.132 3.05145 3.747 3.43645C3.38205 3.7915 3.10118 4.22374 2.925 4.70145C2.774 5.08945 2.595 5.67145 2.546 6.74445C2.493 7.90445 2.482 8.25245 2.482 11.1895C2.482 14.1265 2.493 14.4745 2.546 15.6345C2.595 16.7075 2.774 17.2895 2.925 17.6775C3.101 18.1545 3.382 18.5875 3.747 18.9425C4.102 19.3075 4.535 19.5885 5.012 19.7645C5.4 19.9155 5.982 20.0945 7.055 20.1435C8.215 20.1965 8.562 20.2075 11.5 20.2075C14.438 20.2075 14.785 20.1965 15.945 20.1435C17.018 20.0945 17.6 19.9155 17.988 19.7645C18.501 19.5645 18.868 19.3275 19.253 18.9425C19.618 18.5875 19.899 18.1545 20.075 17.6775C20.226 17.2895 20.405 16.7075 20.454 15.6345C20.507 14.4745 20.518 14.1265 20.518 11.1895C20.518 8.25245 20.507 7.90445 20.454 6.74445C20.405 5.67145 20.226 5.08945 20.075 4.70145C19.875 4.18845 19.638 3.82145 19.253 3.43645C18.8979 3.07152 18.4657 2.79066 17.988 2.61445C17.6 2.46345 17.018 2.28445 15.945 2.23545ZM10.095 14.5805C10.8797 14.9071 11.7534 14.9512 12.5669 14.7052C13.3805 14.4592 14.0834 13.9384 14.5556 13.2317C15.0278 12.525 15.2401 11.6763 15.156 10.8306C15.072 9.98479 14.697 9.19443 14.095 8.59445C13.7112 8.21093 13.2472 7.91727 12.7363 7.7346C12.2255 7.55193 11.6804 7.48481 11.1405 7.53807C10.6006 7.59132 10.0792 7.76363 9.6138 8.04258C9.14845 8.32154 8.75074 8.7002 8.4493 9.1513C8.14786 9.60241 7.95019 10.1147 7.87052 10.6514C7.79084 11.1881 7.83115 11.7357 7.98854 12.255C8.14593 12.7742 8.41648 13.2521 8.78072 13.6542C9.14496 14.0563 9.59382 14.3726 10.095 14.5805ZM7.502 7.19145C8.02702 6.66643 8.65032 6.24996 9.3363 5.96581C10.0223 5.68167 10.7575 5.53543 11.5 5.53543C12.2425 5.53543 12.9777 5.68167 13.6637 5.96581C14.3497 6.24996 14.973 6.66643 15.498 7.19145C16.023 7.71648 16.4395 8.33977 16.7236 9.02575C17.0078 9.71173 17.154 10.447 17.154 11.1895C17.154 11.932 17.0078 12.6672 16.7236 13.3532C16.4395 14.0391 16.023 14.6624 15.498 15.1875C14.4377 16.2478 12.9995 16.8435 11.5 16.8435C10.0005 16.8435 8.56234 16.2478 7.502 15.1875C6.44166 14.1271 5.84597 12.689 5.84597 11.1895C5.84597 9.68991 6.44166 8.25179 7.502 7.19145ZM18.408 6.37745C18.5381 6.25472 18.6423 6.10713 18.7143 5.94343C18.7863 5.77972 18.8248 5.60322 18.8274 5.42438C18.83 5.24554 18.7967 5.068 18.7295 4.90226C18.6622 4.73653 18.5624 4.58596 18.436 4.45949C18.3095 4.33302 18.1589 4.23321 17.9932 4.16597C17.8275 4.09873 17.6499 4.06543 17.4711 4.06804C17.2922 4.07064 17.1157 4.10911 16.952 4.18115C16.7883 4.25319 16.6407 4.35735 16.518 4.48745C16.2793 4.74048 16.1486 5.07657 16.1537 5.42438C16.1588 5.77219 16.2992 6.10433 16.5452 6.3503C16.7911 6.59626 17.1233 6.73668 17.4711 6.74175C17.8189 6.74682 18.155 6.61614 18.408 6.37745Z" fill="#1D1D1D"/>
</svg>
