<svg width="25" height="25" viewBox="0 0 25 25" fill="none" xmlns="http://www.w3.org/2000/svg">
<path d="M21.7836 8.4653L15.8328 7.60045L13.1727 2.20748C13.1 2.05982 12.9805 1.94029 12.8328 1.86764C12.4625 1.68482 12.0125 1.83717 11.8273 2.20748L9.16719 7.60045L3.2164 8.4653C3.05234 8.48873 2.90234 8.56608 2.7875 8.68326C2.64866 8.82597 2.57215 9.01795 2.57479 9.21703C2.57743 9.41612 2.65899 9.60601 2.80156 9.74498L7.10703 13.9426L6.08984 19.87C6.06599 20.0079 6.08125 20.1497 6.13389 20.2793C6.18653 20.409 6.27444 20.5213 6.38766 20.6035C6.50088 20.6858 6.63487 20.7346 6.77445 20.7446C6.91403 20.7545 7.0536 20.7252 7.17734 20.6598L12.5 17.8614L17.8227 20.6598C17.968 20.7372 18.1367 20.763 18.2984 20.7348C18.7063 20.6645 18.9805 20.2778 18.9102 19.87L17.893 13.9426L22.1984 9.74498C22.3156 9.63014 22.393 9.48014 22.4164 9.31608C22.4797 8.90592 22.1938 8.52623 21.7836 8.4653Z" fill="#FFCB45"/>
</svg>
