<svg width="25" height="25" viewBox="0 0 25 25" fill="none" xmlns="http://www.w3.org/2000/svg">
<path d="M5.525 20.9645C5.49074 21.1111 5.49012 21.2637 5.52319 21.4106C5.55627 21.5576 5.62218 21.6951 5.71598 21.813C5.80978 21.9308 5.92904 22.0259 6.06482 22.0911C6.2006 22.1563 6.34937 22.1899 6.5 22.1895C6.69753 22.1895 6.89065 22.1311 7.055 22.0215L12.5 18.3915L17.945 22.0215C18.1153 22.1346 18.3162 22.1928 18.5206 22.1883C18.725 22.1838 18.9232 22.1168 19.0884 21.9964C19.2536 21.8759 19.378 21.7078 19.4448 21.5145C19.5116 21.3213 19.5176 21.1122 19.462 20.9155L17.633 14.5155L22.169 10.4335C22.3143 10.3027 22.418 10.1321 22.4674 9.94298C22.5168 9.75383 22.5097 9.55435 22.4469 9.36921C22.3841 9.18407 22.2684 9.02139 22.1142 8.90129C21.9599 8.78119 21.7739 8.70894 21.579 8.69347L15.878 8.23947L13.411 2.77847C13.3324 2.60258 13.2046 2.45319 13.043 2.34833C12.8814 2.24346 12.693 2.18761 12.5003 2.1875C12.3077 2.18739 12.1191 2.24304 11.9574 2.34773C11.7957 2.45242 11.6678 2.60167 11.589 2.77747L9.122 8.23947L3.421 8.69247C3.22945 8.70764 3.04633 8.77768 2.89355 8.8942C2.74077 9.01072 2.62479 9.16879 2.55949 9.3495C2.49419 9.53021 2.48233 9.7259 2.52534 9.91317C2.56835 10.1004 2.6644 10.2714 2.802 10.4055L7.016 14.5125L5.525 20.9645ZM12.5 5.61847L14.542 10.1395L15.13 10.1865H15.131L19.103 10.5015L15.832 13.4455L15.831 13.4475L15.368 13.8635L15.539 14.4605V14.4635L16.792 18.8485L12.5 15.9875V5.61847Z" fill="#FFCB45"/>
</svg>
