<svg width="23" height="20" viewBox="0 0 23 20" fill="none" xmlns="http://www.w3.org/2000/svg">
<path d="M22.853 3.14972C22.018 3.51972 21.121 3.76972 20.178 3.88272C21.151 3.30052 21.8789 2.38419 22.226 1.30472C21.3118 1.84771 20.3113 2.22992 19.268 2.43472C18.5664 1.68559 17.6371 1.18905 16.6243 1.0222C15.6116 0.855345 14.5721 1.02751 13.6672 1.51198C12.7624 1.99644 12.0428 2.76609 11.6202 3.70143C11.1975 4.63677 11.0955 5.68547 11.33 6.68472C9.47769 6.59172 7.66563 6.11027 6.01143 5.27163C4.35722 4.43298 2.89784 3.25588 1.728 1.81672C1.328 2.50672 1.098 3.30672 1.098 4.15872C1.09756 4.92572 1.28644 5.68097 1.64788 6.35746C2.00933 7.03395 2.53216 7.61076 3.17 8.03672C2.43028 8.01319 1.70688 7.81331 1.06 7.45372V7.51372C1.05993 8.58946 1.43204 9.6321 2.11319 10.4647C2.79434 11.2973 3.74257 11.8687 4.797 12.0817C4.11079 12.2674 3.39134 12.2948 2.693 12.1617C2.9905 13.0873 3.57 13.8967 4.35037 14.4766C5.13074 15.0565 6.07292 15.3779 7.045 15.3957C5.39484 16.6911 3.35689 17.3938 1.259 17.3907C0.887384 17.3908 0.516079 17.3691 0.147003 17.3257C2.27648 18.6949 4.75534 19.4215 7.287 19.4187C15.857 19.4187 20.542 12.3207 20.542 6.16472C20.542 5.96472 20.537 5.76272 20.528 5.56272C21.4393 4.9037 22.2259 4.08762 22.851 3.15272L22.853 3.14972Z" fill="#1D1D1D"/>
</svg>
